<?xml version="1.0" encoding="utf-8" ?>
<svg baseProfile="tiny" height="1536px" version="1.2" width="1024px" xmlns="http://www.w3.org/2000/svg" xmlns:ev="http://www.w3.org/2001/xml-events" xmlns:xlink="http://www.w3.org/1999/xlink"><defs /><path d="M 349,630 L 348,631 L 347,631 L 346,632 L 345,632 L 344,633 L 343,633 L 342,634 L 341,634 L 340,635 L 339,635 L 338,636 L 337,636 L 336,637 L 335,637 L 334,638 L 333,638 L 331,640 L 330,640 L 328,642 L 327,642 L 325,644 L 324,644 L 320,648 L 319,648 L 315,652 L 314,652 L 312,654 L 311,654 L 309,656 L 308,656 L 307,657 L 306,657 L 304,659 L 303,659 L 302,660 L 301,660 L 300,661 L 299,661 L 298,662 L 297,662 L 296,663 L 295,663 L 294,664 L 293,664 L 292,665 L 291,665 L 290,666 L 287,666 L 286,667 L 280,667 L 279,668 L 276,668 L 275,669 L 274,669 L 273,670 L 271,670 L 270,671 L 269,671 L 267,673 L 266,673 L 263,676 L 262,676 L 250,688 L 249,688 L 246,691 L 245,691 L 243,693 L 242,693 L 240,695 L 239,695 L 238,696 L 237,696 L 235,698 L 234,698 L 233,699 L 232,699 L 230,701 L 229,701 L 228,702 L 227,702 L 226,703 L 225,703 L 224,704 L 223,704 L 221,706 L 220,706 L 219,707 L 218,707 L 217,708 L 216,708 L 215,709 L 214,709 L 213,710 L 212,710 L 211,711 L 210,711 L 209,712 L 208,712 L 207,713 L 206,713 L 205,714 L 204,714 L 203,715 L 202,715 L 201,716 L 200,716 L 199,717 L 198,717 L 197,718 L 195,718 L 194,719 L 193,719 L 192,720 L 191,720 L 190,721 L 189,721 L 188,722 L 186,722 L 185,723 L 184,723 L 183,724 L 181,724 L 180,725 L 179,725 L 178,726 L 177,726 L 176,727 L 174,727 L 173,728 L 172,728 L 171,729 L 170,729 L 169,730 L 168,730 L 167,731 L 166,731 L 165,732 L 164,732 L 163,733 L 162,733 L 161,734 L 160,734 L 157,737 L 156,737 L 140,753 L 139,753 L 133,759 L 132,759 L 129,762 L 128,762 L 126,764 L 125,764 L 123,766 L 122,766 L 121,767 L 120,767 L 119,768 L 118,768 L 116,770 L 115,770 L 114,771 L 113,771 L 112,772 L 111,772 L 110,773 L 109,773 L 108,774 L 107,774 L 106,775 L 105,775 L 104,776 L 103,776 L 102,777 L 101,777 L 100,778 L 99,778 L 98,779 L 97,779 L 96,780 L 95,780 L 94,781 L 93,781 L 91,783 L 90,783 L 89,784 L 88,784 L 87,785 L 86,785 L 84,787 L 83,787 L 82,788 L 81,788 L 79,790 L 78,790 L 76,792 L 75,792 L 74,793 L 73,793 L 71,795 L 70,795 L 68,797 L 67,797 L 66,798 L 65,798 L 63,800 L 62,800 L 61,801 L 60,801 L 58,803 L 57,803 L 56,804 L 55,804 L 54,805 L 53,805 L 51,807 L 50,807 L 49,808 L 48,808 L 46,810 L 45,810 L 44,811 L 43,811 L 42,812 L 41,812 L 39,814 L 38,814 L 36,816 L 35,816 L 34,817 L 33,817 L 31,819 L 30,819 L 28,821 L 27,821 L 26,822 L 25,822 L 22,825 L 21,825 L 19,827 L 18,827 L 16,829 L 15,829 L 12,832 L 11,832 L 8,835 L 7,835 L 0,842 L 0,854 L 1,854 L 9,846 L 10,846 L 14,842 L 15,842 L 18,839 L 19,839 L 21,837 L 22,837 L 24,835 L 25,835 L 27,833 L 28,833 L 29,832 L 30,832 L 32,830 L 33,830 L 34,829 L 35,829 L 37,827 L 38,827 L 39,826 L 40,826 L 42,824 L 43,824 L 44,823 L 45,823 L 47,821 L 48,821 L 50,819 L 51,819 L 53,817 L 54,817 L 56,815 L 57,815 L 59,813 L 60,813 L 62,811 L 63,811 L 65,809 L 66,809 L 67,808 L 68,808 L 70,806 L 71,806 L 72,805 L 73,805 L 75,803 L 76,803 L 77,802 L 78,802 L 79,801 L 80,801 L 81,800 L 82,800 L 83,799 L 84,799 L 85,798 L 86,798 L 87,797 L 88,797 L 89,796 L 90,796 L 91,795 L 92,795 L 93,794 L 95,794 L 96,793 L 97,793 L 98,792 L 99,792 L 100,791 L 102,791 L 103,790 L 104,790 L 105,789 L 106,789 L 107,788 L 108,788 L 109,787 L 110,787 L 111,786 L 112,786 L 113,785 L 114,785 L 115,784 L 116,784 L 117,783 L 118,783 L 120,781 L 121,781 L 122,780 L 123,780 L 125,778 L 126,778 L 128,776 L 129,776 L 132,773 L 133,773 L 137,769 L 138,769 L 142,765 L 143,765 L 150,758 L 151,758 L 156,753 L 157,753 L 162,748 L 163,748 L 164,747 L 165,747 L 166,746 L 167,746 L 168,745 L 169,745 L 170,744 L 174,744 L 175,743 L 180,743 L 181,742 L 184,742 L 185,741 L 187,741 L 188,740 L 191,740 L 192,739 L 193,739 L 194,738 L 196,738 L 197,737 L 198,737 L 199,736 L 200,736 L 201,735 L 203,735 L 204,734 L 205,734 L 206,733 L 207,733 L 209,731 L 210,731 L 211,730 L 212,730 L 213,729 L 214,729 L 216,727 L 217,727 L 218,726 L 219,726 L 221,724 L 222,724 L 224,722 L 225,722 L 227,720 L 228,720 L 230,718 L 231,718 L 233,716 L 234,716 L 236,714 L 237,714 L 239,712 L 240,712 L 242,710 L 243,710 L 245,708 L 246,708 L 248,706 L 249,706 L 251,704 L 252,704 L 255,701 L 256,701 L 259,698 L 260,698 L 266,692 L 267,692 L 271,688 L 272,688 L 273,687 L 274,687 L 276,685 L 278,685 L 279,684 L 282,684 L 285,687 L 285,689 L 286,690 L 286,691 L 285,692 L 285,694 L 281,698 L 279,698 L 278,699 L 276,699 L 275,700 L 273,700 L 272,701 L 271,701 L 270,702 L 269,702 L 268,703 L 266,703 L 265,704 L 264,704 L 262,706 L 261,706 L 260,707 L 259,707 L 257,709 L 256,709 L 251,714 L 250,714 L 246,718 L 246,719 L 230,735 L 229,735 L 225,739 L 224,739 L 221,742 L 220,742 L 217,745 L 216,745 L 215,746 L 214,746 L 212,748 L 211,748 L 210,749 L 209,749 L 208,750 L 207,750 L 206,751 L 205,751 L 204,752 L 202,752 L 201,753 L 200,753 L 199,754 L 196,754 L 195,755 L 190,755 L 189,756 L 179,756 L 178,757 L 171,757 L 170,758 L 168,758 L 167,759 L 166,759 L 165,760 L 164,760 L 163,761 L 162,761 L 160,763 L 159,763 L 157,765 L 156,765 L 152,769 L 152,770 L 148,774 L 148,775 L 145,778 L 145,779 L 143,781 L 143,782 L 132,793 L 131,793 L 130,794 L 129,794 L 128,795 L 127,795 L 126,796 L 125,796 L 124,797 L 123,797 L 122,798 L 120,798 L 119,799 L 118,799 L 117,800 L 116,800 L 115,801 L 113,801 L 112,802 L 110,802 L 109,803 L 107,803 L 106,804 L 103,804 L 102,805 L 100,805 L 99,806 L 96,806 L 95,807 L 92,807 L 91,808 L 89,808 L 88,809 L 86,809 L 85,810 L 83,810 L 82,811 L 80,811 L 79,812 L 78,812 L 77,813 L 75,813 L 74,814 L 73,814 L 72,815 L 71,815 L 70,816 L 69,816 L 68,817 L 67,817 L 65,819 L 64,819 L 63,820 L 62,820 L 60,822 L 59,822 L 58,823 L 57,823 L 54,826 L 53,826 L 51,828 L 50,828 L 34,844 L 33,844 L 31,846 L 30,846 L 28,848 L 27,848 L 26,849 L 25,849 L 24,850 L 23,850 L 22,851 L 21,851 L 20,852 L 19,852 L 18,853 L 17,853 L 15,855 L 14,855 L 13,856 L 12,856 L 11,857 L 10,857 L 8,859 L 7,859 L 5,861 L 4,861 L 0,865 L 0,887 L 1,886 L 1,885 L 11,875 L 12,875 L 14,873 L 15,873 L 17,871 L 18,871 L 19,870 L 20,870 L 21,869 L 22,869 L 23,868 L 24,868 L 25,867 L 26,867 L 27,866 L 28,866 L 29,865 L 30,865 L 31,864 L 32,864 L 33,863 L 34,863 L 36,861 L 37,861 L 38,860 L 39,860 L 41,858 L 42,858 L 51,849 L 51,848 L 62,837 L 63,837 L 65,835 L 66,835 L 67,834 L 68,834 L 69,833 L 70,833 L 71,832 L 72,832 L 73,831 L 74,831 L 75,830 L 76,830 L 77,829 L 78,829 L 79,828 L 81,828 L 82,827 L 83,827 L 84,826 L 86,826 L 87,825 L 90,825 L 91,824 L 94,824 L 95,823 L 98,823 L 99,822 L 102,822 L 103,821 L 106,821 L 107,820 L 111,820 L 112,819 L 117,819 L 118,818 L 120,818 L 121,817 L 123,817 L 124,816 L 125,816 L 126,815 L 127,815 L 128,814 L 129,814 L 131,812 L 132,812 L 133,811 L 134,811 L 136,809 L 137,809 L 139,807 L 140,807 L 144,803 L 145,803 L 147,801 L 147,800 L 152,795 L 152,794 L 154,792 L 154,791 L 156,789 L 156,788 L 158,786 L 158,785 L 160,783 L 160,782 L 166,776 L 168,776 L 169,775 L 182,775 L 183,776 L 196,776 L 197,775 L 201,775 L 202,774 L 205,774 L 206,773 L 208,773 L 209,772 L 210,772 L 211,771 L 212,771 L 213,770 L 214,770 L 215,769 L 216,769 L 217,768 L 218,768 L 220,766 L 221,766 L 223,764 L 224,764 L 228,760 L 229,760 L 241,748 L 241,747 L 246,742 L 246,741 L 264,723 L 265,723 L 267,721 L 268,721 L 270,719 L 271,719 L 272,718 L 273,718 L 274,717 L 275,717 L 276,716 L 279,716 L 280,715 L 281,715 L 282,716 L 284,716 L 285,717 L 285,718 L 286,719 L 286,720 L 287,721 L 287,725 L 288,726 L 288,728 L 284,732 L 282,732 L 281,733 L 278,733 L 277,734 L 275,734 L 274,735 L 273,735 L 272,736 L 270,736 L 269,737 L 268,737 L 267,738 L 266,738 L 264,740 L 263,740 L 262,741 L 261,741 L 259,743 L 258,743 L 255,746 L 254,746 L 241,759 L 241,760 L 219,782 L 218,782 L 215,785 L 214,785 L 212,787 L 211,787 L 209,789 L 207,789 L 206,790 L 205,790 L 204,791 L 202,791 L 201,792 L 197,792 L 196,793 L 185,793 L 184,792 L 179,792 L 178,791 L 170,791 L 169,792 L 167,792 L 166,793 L 165,793 L 160,798 L 160,799 L 159,800 L 159,801 L 158,802 L 158,803 L 157,804 L 157,805 L 156,806 L 156,807 L 155,808 L 155,809 L 154,810 L 154,811 L 153,812 L 153,813 L 150,816 L 150,817 L 144,823 L 143,823 L 141,825 L 140,825 L 138,827 L 137,827 L 136,828 L 135,828 L 134,829 L 133,829 L 132,830 L 131,830 L 130,831 L 129,831 L 128,832 L 127,832 L 126,833 L 124,833 L 123,834 L 122,834 L 121,835 L 118,835 L 117,836 L 112,836 L 111,837 L 105,837 L 104,838 L 95,838 L 94,839 L 89,839 L 88,840 L 85,840 L 84,841 L 82,841 L 81,842 L 80,842 L 79,843 L 77,843 L 76,844 L 75,844 L 73,846 L 72,846 L 70,848 L 69,848 L 61,856 L 61,857 L 58,860 L 58,861 L 47,872 L 46,872 L 44,874 L 43,874 L 42,875 L 41,875 L 40,876 L 38,876 L 37,877 L 35,877 L 34,878 L 32,878 L 31,879 L 29,879 L 28,880 L 27,880 L 26,881 L 25,881 L 22,884 L 21,884 L 17,888 L 17,889 L 13,893 L 13,894 L 11,896 L 11,897 L 8,900 L 8,901 L 6,903 L 6,904 L 0,910 L 0,938 L 8,930 L 8,929 L 12,925 L 12,924 L 14,922 L 14,921 L 16,919 L 16,918 L 18,916 L 18,915 L 20,913 L 20,912 L 21,911 L 21,910 L 24,907 L 24,906 L 29,901 L 30,901 L 32,899 L 33,899 L 35,897 L 36,897 L 37,896 L 39,896 L 40,895 L 42,895 L 43,894 L 45,894 L 46,893 L 47,893 L 48,892 L 50,892 L 51,891 L 52,891 L 53,890 L 54,890 L 56,888 L 57,888 L 61,884 L 61,883 L 63,881 L 63,880 L 64,879 L 64,878 L 66,876 L 66,875 L 69,872 L 69,871 L 75,865 L 76,865 L 78,863 L 79,863 L 81,861 L 82,861 L 83,860 L 84,860 L 85,859 L 88,859 L 89,858 L 93,858 L 94,857 L 105,857 L 106,856 L 116,856 L 117,855 L 122,855 L 123,854 L 126,854 L 127,853 L 129,853 L 130,852 L 131,852 L 132,851 L 133,851 L 134,850 L 136,850 L 138,848 L 139,848 L 140,847 L 141,847 L 142,846 L 143,846 L 144,845 L 145,845 L 147,843 L 148,843 L 151,840 L 152,840 L 158,834 L 158,833 L 160,831 L 160,829 L 161,828 L 161,826 L 162,825 L 162,819 L 163,818 L 163,817 L 166,814 L 167,814 L 168,813 L 170,813 L 171,812 L 184,812 L 185,813 L 197,813 L 198,812 L 202,812 L 203,811 L 205,811 L 206,810 L 208,810 L 209,809 L 210,809 L 211,808 L 212,808 L 213,807 L 214,807 L 216,805 L 217,805 L 220,802 L 221,802 L 225,798 L 226,798 L 230,794 L 231,794 L 244,781 L 244,780 L 260,764 L 261,764 L 264,761 L 265,761 L 267,759 L 268,759 L 269,758 L 270,758 L 271,757 L 272,757 L 273,756 L 275,756 L 276,755 L 278,755 L 279,754 L 282,754 L 283,753 L 287,753 L 288,752 L 292,752 L 293,753 L 295,753 L 296,754 L 296,755 L 297,756 L 297,757 L 298,758 L 298,762 L 299,763 L 299,766 L 300,767 L 300,770 L 301,771 L 301,773 L 302,774 L 302,777 L 303,778 L 303,779 L 304,780 L 304,782 L 305,783 L 305,785 L 306,786 L 306,787 L 307,788 L 307,790 L 306,791 L 303,791 L 302,792 L 299,792 L 298,793 L 296,793 L 295,794 L 292,794 L 291,795 L 289,795 L 288,796 L 286,796 L 285,797 L 284,797 L 283,798 L 281,798 L 280,799 L 278,799 L 277,800 L 275,800 L 274,801 L 273,801 L 272,802 L 270,802 L 269,803 L 268,803 L 267,804 L 265,804 L 264,805 L 263,805 L 262,806 L 261,806 L 260,807 L 259,807 L 258,808 L 257,808 L 256,809 L 255,809 L 253,811 L 252,811 L 250,813 L 249,813 L 245,817 L 244,817 L 238,823 L 237,823 L 231,829 L 230,829 L 226,833 L 225,833 L 222,836 L 221,836 L 219,838 L 218,838 L 201,855 L 200,855 L 199,856 L 198,856 L 197,857 L 196,857 L 195,858 L 193,858 L 192,859 L 188,859 L 187,858 L 185,858 L 184,857 L 183,857 L 181,855 L 180,855 L 177,852 L 175,852 L 174,851 L 168,851 L 167,852 L 166,852 L 163,855 L 163,859 L 162,860 L 162,864 L 161,865 L 161,866 L 160,867 L 160,868 L 158,870 L 158,871 L 157,872 L 156,872 L 151,877 L 150,877 L 149,878 L 148,878 L 146,880 L 145,880 L 144,881 L 143,881 L 142,882 L 140,882 L 139,883 L 138,883 L 137,884 L 135,884 L 134,885 L 132,885 L 131,886 L 128,886 L 127,887 L 123,887 L 122,888 L 116,888 L 115,889 L 85,889 L 84,890 L 83,890 L 82,891 L 81,891 L 76,896 L 76,897 L 75,898 L 75,899 L 74,900 L 74,902 L 73,903 L 73,907 L 72,908 L 72,911 L 71,912 L 71,913 L 70,914 L 70,915 L 62,923 L 61,923 L 59,925 L 58,925 L 56,927 L 55,927 L 53,929 L 52,929 L 50,931 L 49,931 L 47,933 L 46,933 L 44,935 L 43,935 L 38,940 L 38,941 L 35,944 L 35,945 L 34,946 L 34,947 L 32,949 L 32,950 L 31,951 L 31,952 L 30,953 L 30,954 L 29,955 L 29,956 L 28,957 L 28,958 L 27,959 L 27,960 L 25,962 L 25,963 L 22,966 L 22,967 L 13,976 L 13,977 L 5,985 L 5,986 L 0,991 L 0,1428 L 6,1428 L 7,1429 L 12,1429 L 13,1430 L 18,1430 L 19,1431 L 23,1431 L 24,1432 L 28,1432 L 29,1433 L 33,1433 L 34,1434 L 37,1434 L 38,1435 L 43,1435 L 44,1436 L 47,1436 L 48,1437 L 51,1437 L 52,1438 L 56,1438 L 57,1439 L 59,1439 L 60,1440 L 63,1440 L 64,1441 L 67,1441 L 68,1442 L 69,1442 L 70,1443 L 72,1443 L 73,1444 L 74,1444 L 75,1445 L 76,1445 L 77,1446 L 78,1446 L 79,1447 L 80,1447 L 81,1448 L 82,1448 L 83,1449 L 84,1449 L 86,1451 L 87,1451 L 88,1452 L 89,1452 L 90,1453 L 91,1453 L 92,1454 L 93,1454 L 94,1455 L 95,1455 L 96,1456 L 100,1456 L 101,1455 L 102,1455 L 107,1450 L 107,1449 L 109,1447 L 109,1446 L 110,1445 L 110,1444 L 111,1443 L 111,1442 L 112,1441 L 112,1440 L 113,1439 L 113,1437 L 114,1436 L 114,1434 L 115,1433 L 115,1432 L 116,1431 L 116,1429 L 117,1428 L 117,1426 L 118,1425 L 118,1423 L 119,1422 L 119,1420 L 120,1419 L 120,1417 L 121,1416 L 121,1414 L 122,1413 L 122,1411 L 123,1410 L 123,1408 L 124,1407 L 124,1406 L 125,1405 L 125,1403 L 126,1402 L 126,1401 L 127,1400 L 128,1401 L 128,1418 L 127,1419 L 127,1427 L 126,1428 L 126,1432 L 125,1433 L 125,1437 L 124,1438 L 124,1441 L 123,1442 L 123,1445 L 122,1446 L 122,1448 L 121,1449 L 121,1451 L 120,1452 L 120,1454 L 119,1455 L 119,1457 L 118,1458 L 118,1460 L 117,1461 L 117,1462 L 116,1463 L 116,1464 L 115,1465 L 115,1467 L 114,1468 L 114,1469 L 113,1470 L 113,1472 L 112,1473 L 112,1474 L 111,1475 L 111,1477 L 110,1478 L 110,1479 L 109,1480 L 109,1483 L 108,1484 L 108,1486 L 107,1487 L 107,1489 L 106,1490 L 106,1493 L 105,1494 L 105,1498 L 104,1499 L 104,1502 L 103,1503 L 103,1506 L 102,1507 L 102,1511 L 101,1512 L 101,1516 L 100,1517 L 100,1522 L 99,1523 L 99,1527 L 98,1528 L 98,1531 L 97,1532 L 97,1535 L 847,1535 L 847,1499 L 848,1498 L 848,1490 L 849,1489 L 849,1484 L 850,1483 L 850,1478 L 851,1477 L 851,1464 L 850,1463 L 852,1461 L 857,1461 L 858,1460 L 863,1460 L 864,1459 L 868,1459 L 869,1458 L 873,1458 L 874,1457 L 877,1457 L 878,1456 L 881,1456 L 882,1455 L 885,1455 L 886,1454 L 889,1454 L 890,1453 L 893,1453 L 894,1452 L 898,1452 L 899,1451 L 902,1451 L 903,1450 L 907,1450 L 908,1449 L 911,1449 L 912,1448 L 916,1448 L 917,1447 L 923,1447 L 924,1446 L 930,1446 L 931,1445 L 939,1445 L 940,1444 L 948,1444 L 949,1443 L 958,1443 L 959,1442 L 968,1442 L 969,1441 L 979,1441 L 980,1440 L 990,1440 L 991,1439 L 1002,1439 L 1003,1438 L 1021,1438 L 1022,1437 L 1023,1437 L 1023,1009 L 1020,1009 L 1019,1010 L 1017,1010 L 1016,1011 L 1014,1011 L 1013,1012 L 1012,1012 L 1011,1013 L 1010,1013 L 1009,1014 L 1008,1014 L 1007,1015 L 1006,1015 L 1005,1016 L 1004,1016 L 1003,1017 L 1002,1017 L 1001,1018 L 1000,1018 L 999,1019 L 997,1019 L 995,1017 L 995,1015 L 994,1014 L 994,1013 L 993,1012 L 993,1010 L 992,1009 L 992,1008 L 991,1007 L 991,1005 L 990,1004 L 990,1003 L 989,1002 L 989,1001 L 988,1000 L 988,999 L 986,997 L 986,996 L 985,995 L 985,994 L 984,993 L 984,992 L 982,990 L 982,989 L 979,986 L 979,985 L 976,982 L 976,981 L 972,977 L 972,976 L 968,972 L 968,971 L 963,966 L 963,965 L 960,962 L 960,961 L 959,960 L 959,959 L 958,958 L 958,957 L 957,956 L 957,955 L 956,954 L 956,953 L 955,952 L 955,951 L 954,950 L 954,949 L 953,948 L 953,947 L 951,945 L 951,944 L 950,943 L 950,942 L 949,941 L 949,940 L 947,938 L 947,937 L 940,930 L 939,930 L 937,928 L 936,928 L 934,926 L 933,926 L 931,924 L 930,924 L 928,922 L 927,922 L 925,920 L 924,920 L 921,917 L 920,917 L 909,906 L 909,905 L 907,903 L 907,902 L 906,901 L 906,900 L 905,899 L 905,897 L 904,896 L 904,894 L 903,893 L 903,890 L 902,889 L 902,885 L 901,884 L 901,883 L 898,880 L 897,880 L 896,879 L 894,879 L 893,878 L 886,878 L 885,879 L 872,879 L 871,878 L 867,878 L 866,877 L 862,877 L 861,876 L 859,876 L 858,875 L 855,875 L 854,874 L 852,874 L 851,873 L 849,873 L 848,872 L 846,872 L 845,871 L 843,871 L 842,870 L 840,870 L 839,869 L 838,869 L 837,868 L 835,868 L 834,867 L 833,867 L 832,866 L 831,866 L 830,865 L 829,865 L 828,864 L 827,864 L 826,863 L 825,863 L 824,862 L 823,862 L 821,860 L 820,860 L 819,859 L 818,859 L 816,857 L 815,857 L 813,855 L 812,855 L 809,852 L 808,852 L 805,849 L 804,849 L 785,830 L 785,829 L 774,818 L 773,818 L 770,815 L 769,815 L 767,813 L 766,813 L 765,812 L 764,812 L 763,811 L 762,811 L 761,810 L 760,810 L 759,809 L 758,809 L 757,808 L 756,808 L 755,807 L 753,807 L 752,806 L 750,806 L 749,805 L 747,805 L 746,804 L 744,804 L 743,803 L 741,803 L 740,802 L 738,802 L 737,801 L 735,801 L 734,800 L 731,800 L 730,799 L 728,799 L 727,798 L 724,798 L 722,796 L 723,795 L 723,794 L 724,793 L 724,792 L 726,790 L 726,789 L 727,788 L 727,787 L 728,786 L 728,785 L 730,783 L 730,782 L 731,781 L 731,780 L 733,778 L 733,777 L 734,776 L 734,775 L 736,773 L 736,772 L 739,769 L 739,768 L 742,765 L 742,764 L 745,761 L 745,760 L 748,757 L 748,756 L 750,754 L 750,753 L 751,752 L 752,752 L 753,751 L 756,751 L 757,750 L 759,750 L 760,751 L 764,751 L 765,752 L 767,752 L 768,753 L 770,753 L 771,754 L 772,754 L 773,755 L 774,755 L 775,756 L 776,756 L 778,758 L 779,758 L 787,766 L 787,767 L 790,770 L 790,771 L 791,772 L 791,773 L 792,774 L 792,775 L 793,776 L 793,777 L 795,779 L 795,780 L 796,781 L 796,782 L 797,783 L 797,784 L 799,786 L 799,787 L 801,789 L 801,790 L 805,794 L 805,795 L 817,807 L 818,807 L 822,811 L 823,811 L 825,813 L 826,813 L 828,815 L 829,815 L 831,817 L 832,817 L 833,818 L 834,818 L 835,819 L 836,819 L 837,820 L 838,820 L 839,821 L 840,821 L 841,822 L 842,822 L 843,823 L 845,823 L 846,824 L 847,824 L 848,825 L 850,825 L 851,826 L 852,826 L 853,827 L 855,827 L 856,828 L 858,828 L 859,829 L 861,829 L 862,830 L 865,830 L 866,831 L 868,831 L 869,832 L 871,832 L 872,833 L 875,833 L 876,834 L 882,834 L 883,835 L 887,835 L 888,834 L 906,834 L 907,835 L 910,835 L 911,836 L 912,836 L 917,841 L 917,843 L 918,844 L 918,855 L 919,856 L 919,859 L 920,860 L 920,861 L 921,862 L 921,863 L 922,864 L 922,865 L 924,867 L 924,868 L 932,876 L 933,876 L 935,878 L 936,878 L 938,880 L 939,880 L 940,881 L 941,881 L 942,882 L 943,882 L 944,883 L 946,883 L 947,884 L 949,884 L 950,885 L 951,885 L 952,886 L 954,886 L 955,887 L 956,887 L 957,888 L 958,888 L 959,889 L 960,889 L 961,890 L 962,890 L 964,892 L 965,892 L 971,898 L 971,899 L 975,903 L 975,904 L 976,905 L 976,906 L 978,908 L 978,909 L 979,910 L 979,911 L 980,912 L 980,913 L 981,914 L 981,915 L 982,916 L 982,918 L 983,919 L 983,920 L 984,921 L 984,922 L 985,923 L 985,924 L 986,925 L 986,927 L 988,929 L 988,930 L 989,931 L 989,932 L 991,934 L 991,935 L 994,938 L 994,939 L 1008,953 L 1008,954 L 1010,956 L 1010,957 L 1012,959 L 1012,960 L 1013,961 L 1013,962 L 1014,963 L 1014,964 L 1015,965 L 1015,966 L 1016,967 L 1016,969 L 1017,970 L 1017,971 L 1018,972 L 1018,974 L 1019,975 L 1019,977 L 1020,978 L 1020,980 L 1021,981 L 1021,982 L 1022,983 L 1022,985 L 1023,986 L 1023,988 L 1023,938 L 1008,923 L 1008,922 L 1006,920 L 1006,919 L 1004,917 L 1004,916 L 1003,915 L 1003,914 L 1002,913 L 1002,912 L 1001,911 L 1001,909 L 1000,908 L 1000,907 L 999,906 L 999,905 L 998,904 L 998,903 L 997,902 L 997,901 L 996,900 L 996,899 L 994,897 L 994,896 L 992,894 L 992,893 L 990,891 L 990,890 L 988,888 L 988,887 L 979,878 L 978,878 L 976,876 L 975,876 L 973,874 L 972,874 L 971,873 L 970,873 L 969,872 L 968,872 L 967,871 L 966,871 L 965,870 L 964,870 L 963,869 L 962,869 L 961,868 L 959,868 L 958,867 L 957,867 L 956,866 L 954,866 L 953,865 L 952,865 L 951,864 L 950,864 L 949,863 L 948,863 L 946,861 L 945,861 L 937,853 L 937,852 L 936,851 L 936,850 L 935,849 L 935,848 L 934,847 L 934,845 L 933,844 L 933,837 L 932,836 L 932,833 L 931,832 L 931,831 L 930,830 L 930,828 L 929,827 L 929,826 L 927,824 L 927,823 L 923,819 L 922,819 L 920,817 L 918,817 L 917,816 L 915,816 L 914,815 L 887,815 L 886,814 L 882,814 L 881,813 L 878,813 L 877,812 L 876,812 L 875,811 L 873,811 L 872,810 L 870,810 L 869,809 L 867,809 L 866,808 L 864,808 L 863,807 L 862,807 L 861,806 L 859,806 L 858,805 L 857,805 L 856,804 L 854,804 L 853,803 L 852,803 L 851,802 L 849,802 L 848,801 L 847,801 L 846,800 L 845,800 L 844,799 L 843,799 L 842,798 L 841,798 L 840,797 L 839,797 L 837,795 L 836,795 L 834,793 L 833,793 L 831,791 L 830,791 L 824,785 L 823,785 L 820,782 L 820,781 L 815,776 L 815,775 L 813,773 L 813,772 L 811,770 L 811,769 L 809,767 L 809,766 L 808,765 L 808,764 L 807,763 L 807,762 L 806,761 L 806,760 L 804,758 L 804,757 L 803,756 L 803,755 L 801,753 L 801,752 L 798,749 L 798,748 L 792,742 L 791,742 L 787,738 L 786,738 L 785,737 L 784,737 L 783,736 L 782,736 L 781,735 L 780,735 L 779,734 L 778,734 L 777,733 L 775,733 L 774,732 L 772,732 L 771,731 L 768,731 L 767,730 L 764,730 L 763,729 L 762,729 L 760,727 L 760,722 L 761,721 L 761,720 L 764,717 L 765,717 L 766,716 L 776,716 L 777,717 L 781,717 L 782,718 L 784,718 L 785,719 L 786,719 L 787,720 L 788,720 L 789,721 L 790,721 L 792,723 L 793,723 L 800,730 L 800,731 L 803,734 L 803,735 L 804,736 L 804,737 L 806,739 L 806,740 L 807,741 L 807,742 L 808,743 L 808,744 L 809,745 L 809,746 L 810,747 L 810,748 L 811,749 L 811,750 L 812,751 L 812,752 L 813,753 L 813,754 L 815,756 L 815,757 L 818,760 L 818,761 L 824,767 L 825,767 L 828,770 L 829,770 L 831,772 L 832,772 L 834,774 L 835,774 L 837,776 L 838,776 L 839,777 L 840,777 L 841,778 L 842,778 L 844,780 L 845,780 L 846,781 L 847,781 L 848,782 L 849,782 L 850,783 L 852,783 L 853,784 L 854,784 L 855,785 L 856,785 L 857,786 L 859,786 L 860,787 L 861,787 L 862,788 L 864,788 L 865,789 L 867,789 L 868,790 L 869,790 L 870,791 L 872,791 L 873,792 L 875,792 L 876,793 L 878,793 L 879,794 L 880,794 L 881,795 L 883,795 L 884,796 L 886,796 L 887,797 L 890,797 L 891,798 L 895,798 L 896,799 L 902,799 L 903,800 L 913,800 L 914,801 L 917,801 L 918,802 L 920,802 L 921,803 L 922,803 L 923,804 L 924,804 L 926,806 L 927,806 L 933,812 L 933,813 L 934,814 L 934,815 L 935,816 L 935,817 L 936,818 L 936,819 L 937,820 L 937,823 L 938,824 L 938,826 L 939,827 L 939,828 L 940,829 L 940,831 L 942,833 L 942,834 L 943,835 L 943,836 L 945,838 L 945,839 L 947,841 L 947,842 L 959,854 L 960,854 L 962,856 L 963,856 L 965,858 L 966,858 L 967,859 L 969,859 L 970,860 L 971,860 L 972,861 L 973,861 L 974,862 L 975,862 L 976,863 L 977,863 L 978,864 L 979,864 L 980,865 L 981,865 L 982,866 L 983,866 L 985,868 L 986,868 L 987,869 L 988,869 L 990,871 L 991,871 L 994,874 L 995,874 L 1008,887 L 1008,888 L 1011,891 L 1011,892 L 1013,894 L 1013,895 L 1015,897 L 1015,898 L 1016,899 L 1016,900 L 1018,902 L 1018,903 L 1019,904 L 1019,905 L 1020,906 L 1020,907 L 1021,908 L 1021,909 L 1022,910 L 1022,911 L 1023,912 L 1023,875 L 1018,870 L 1017,870 L 1013,866 L 1012,866 L 1009,863 L 1008,863 L 1007,862 L 1006,862 L 1004,860 L 1003,860 L 1001,858 L 1000,858 L 998,856 L 997,856 L 996,855 L 995,855 L 994,854 L 993,854 L 991,852 L 990,852 L 989,851 L 988,851 L 987,850 L 986,850 L 985,849 L 984,849 L 983,848 L 982,848 L 981,847 L 980,847 L 978,845 L 977,845 L 973,841 L 972,841 L 958,827 L 958,826 L 956,824 L 956,823 L 954,821 L 954,820 L 953,819 L 953,818 L 952,817 L 952,816 L 951,815 L 951,813 L 950,812 L 950,810 L 949,809 L 949,807 L 948,806 L 948,804 L 947,803 L 947,802 L 946,801 L 946,800 L 944,798 L 944,797 L 941,794 L 942,793 L 943,793 L 951,801 L 951,802 L 954,805 L 954,806 L 957,809 L 957,810 L 961,814 L 962,814 L 966,818 L 967,818 L 970,821 L 971,821 L 975,825 L 976,825 L 978,827 L 979,827 L 982,830 L 983,830 L 987,834 L 988,834 L 992,838 L 993,838 L 998,843 L 999,843 L 1004,848 L 1005,848 L 1011,854 L 1012,854 L 1023,865 L 1023,852 L 1019,848 L 1019,847 L 1016,844 L 1015,844 L 1007,836 L 1006,836 L 1002,832 L 1001,832 L 998,829 L 997,829 L 994,826 L 993,826 L 990,823 L 989,823 L 986,820 L 985,820 L 981,816 L 980,816 L 976,812 L 975,812 L 971,808 L 970,808 L 965,803 L 964,803 L 960,799 L 959,799 L 954,794 L 953,794 L 950,791 L 949,791 L 946,788 L 945,788 L 942,785 L 941,785 L 939,783 L 938,783 L 936,781 L 935,781 L 933,779 L 932,779 L 930,777 L 929,777 L 927,775 L 926,775 L 924,773 L 923,773 L 921,771 L 920,771 L 918,769 L 917,769 L 915,767 L 914,767 L 912,765 L 911,765 L 906,760 L 905,760 L 900,755 L 899,755 L 897,753 L 896,753 L 893,750 L 892,750 L 891,749 L 890,749 L 888,747 L 887,747 L 886,746 L 885,746 L 883,744 L 882,744 L 881,743 L 880,743 L 879,742 L 878,742 L 876,740 L 875,740 L 874,739 L 873,739 L 872,738 L 871,738 L 870,737 L 869,737 L 868,736 L 867,736 L 866,735 L 865,735 L 864,734 L 863,734 L 862,733 L 861,733 L 860,732 L 859,732 L 858,731 L 857,731 L 856,730 L 855,730 L 854,729 L 853,729 L 851,727 L 850,727 L 849,726 L 848,726 L 847,725 L 846,725 L 844,723 L 843,723 L 842,722 L 841,722 L 839,720 L 838,720 L 837,719 L 836,719 L 835,718 L 834,718 L 832,716 L 831,716 L 830,715 L 829,715 L 827,713 L 826,713 L 825,712 L 824,712 L 823,711 L 822,711 L 820,709 L 819,709 L 818,708 L 817,708 L 815,706 L 814,706 L 812,704 L 811,704 L 809,702 L 808,702 L 806,700 L 805,700 L 803,698 L 802,698 L 800,696 L 799,696 L 796,693 L 795,693 L 793,691 L 792,691 L 790,689 L 789,689 L 787,687 L 786,687 L 784,685 L 783,685 L 782,684 L 781,684 L 779,682 L 778,682 L 777,681 L 776,681 L 775,680 L 774,680 L 773,679 L 772,679 L 771,678 L 770,678 L 768,676 L 767,676 L 766,675 L 765,675 L 764,674 L 763,674 L 762,673 L 761,673 L 759,671 L 758,671 L 757,670 L 756,670 L 754,668 L 753,668 L 751,666 L 750,666 L 749,665 L 748,665 L 746,663 L 745,663 L 743,661 L 742,661 L 738,657 L 737,657 L 734,654 L 734,653 L 731,650 L 731,649 L 729,647 L 729,646 L 728,645 L 728,644 L 726,642 L 726,641 L 723,638 L 722,638 L 721,637 L 720,637 L 719,636 L 717,636 L 716,635 L 714,635 L 713,634 L 711,634 L 710,633 L 708,633 L 707,632 L 705,632 L 704,631 L 703,631 L 703,633 L 704,634 L 704,635 L 705,636 L 705,637 L 706,638 L 706,639 L 708,641 L 708,642 L 710,644 L 710,645 L 715,650 L 715,651 L 720,656 L 720,657 L 722,659 L 722,660 L 723,661 L 723,662 L 724,663 L 724,665 L 725,666 L 725,670 L 726,671 L 726,683 L 725,684 L 725,689 L 724,690 L 724,692 L 723,693 L 723,695 L 722,696 L 722,698 L 721,699 L 721,701 L 720,702 L 720,703 L 719,704 L 719,706 L 718,707 L 718,708 L 717,709 L 717,710 L 716,711 L 716,712 L 715,713 L 715,714 L 714,715 L 714,716 L 713,717 L 713,718 L 712,719 L 712,720 L 711,721 L 711,722 L 710,723 L 710,724 L 709,725 L 709,726 L 708,727 L 708,728 L 707,729 L 707,730 L 705,732 L 705,733 L 704,734 L 704,735 L 702,737 L 702,738 L 701,739 L 701,740 L 699,742 L 699,743 L 698,744 L 698,745 L 696,747 L 696,748 L 695,749 L 695,750 L 693,752 L 693,753 L 692,754 L 692,755 L 690,757 L 690,758 L 688,760 L 688,761 L 687,762 L 687,763 L 685,765 L 685,766 L 683,768 L 683,769 L 681,771 L 681,772 L 679,774 L 679,775 L 676,778 L 676,779 L 674,781 L 674,782 L 671,785 L 671,786 L 668,789 L 668,790 L 664,794 L 664,795 L 658,801 L 658,802 L 645,815 L 645,816 L 642,819 L 641,819 L 626,834 L 625,834 L 616,843 L 615,843 L 609,849 L 608,849 L 602,855 L 601,855 L 597,859 L 596,859 L 592,863 L 591,863 L 587,867 L 586,867 L 583,870 L 582,870 L 579,873 L 578,873 L 575,876 L 574,876 L 571,879 L 570,879 L 567,882 L 566,882 L 564,884 L 563,884 L 560,887 L 559,887 L 557,889 L 556,889 L 554,891 L 553,891 L 551,893 L 550,893 L 548,895 L 547,895 L 545,897 L 544,897 L 542,899 L 541,899 L 539,901 L 538,901 L 537,902 L 536,902 L 534,904 L 533,904 L 532,905 L 531,905 L 529,907 L 528,907 L 527,908 L 526,908 L 525,909 L 524,909 L 522,911 L 521,911 L 520,912 L 519,912 L 518,913 L 517,913 L 516,914 L 515,914 L 514,915 L 513,915 L 512,916 L 511,916 L 510,917 L 509,917 L 508,918 L 506,918 L 505,919 L 504,919 L 503,920 L 502,920 L 501,921 L 500,921 L 498,919 L 497,919 L 495,917 L 494,917 L 492,915 L 491,915 L 488,912 L 487,912 L 484,909 L 483,909 L 480,906 L 479,906 L 477,904 L 476,904 L 472,900 L 471,900 L 467,896 L 466,896 L 461,891 L 460,891 L 454,885 L 453,885 L 445,877 L 444,877 L 417,850 L 417,849 L 406,838 L 406,837 L 399,830 L 399,829 L 393,823 L 393,822 L 389,818 L 389,817 L 384,812 L 384,811 L 381,808 L 381,807 L 377,803 L 377,802 L 374,799 L 374,798 L 372,796 L 372,795 L 369,792 L 369,791 L 366,788 L 366,787 L 364,785 L 364,784 L 362,782 L 362,781 L 360,779 L 360,778 L 358,776 L 358,775 L 357,774 L 357,773 L 355,771 L 355,770 L 354,769 L 354,768 L 353,767 L 353,766 L 352,765 L 352,764 L 350,762 L 350,761 L 349,760 L 349,759 L 348,758 L 348,757 L 347,756 L 347,755 L 346,754 L 346,753 L 345,752 L 345,751 L 344,750 L 344,749 L 343,748 L 343,747 L 342,746 L 342,744 L 341,743 L 341,742 L 340,741 L 340,740 L 339,739 L 339,738 L 338,737 L 338,736 L 337,735 L 337,733 L 336,732 L 336,731 L 335,730 L 335,729 L 334,728 L 334,727 L 333,726 L 333,725 L 332,724 L 332,722 L 331,721 L 331,720 L 330,719 L 330,718 L 329,717 L 329,715 L 328,714 L 328,712 L 327,711 L 327,709 L 326,708 L 326,706 L 325,705 L 325,702 L 324,701 L 324,698 L 323,697 L 323,694 L 322,693 L 322,688 L 321,687 L 321,667 L 322,666 L 322,663 L 323,662 L 323,660 L 324,659 L 324,658 L 325,657 L 325,656 L 327,654 L 327,653 L 348,632 L 348,631 Z" fill="black" /><path d="M 687,411 L 684,414 L 684,415 L 683,416 L 683,421 L 682,422 L 681,421 L 681,416 L 681,422 L 682,423 L 682,424 L 683,425 L 684,425 L 685,426 L 686,426 L 687,427 L 688,427 L 687,427 L 686,426 L 685,426 L 682,423 L 682,422 L 683,421 L 686,424 L 687,424 L 688,425 L 691,425 L 692,424 L 692,423 L 693,422 L 693,419 L 692,420 L 691,420 L 690,419 L 689,419 L 688,418 L 688,416 L 686,414 L 686,413 L 687,412 L 691,412 L 695,416 L 695,417 L 696,418 L 696,421 L 695,422 L 695,423 L 694,424 L 694,425 L 695,424 L 695,423 L 696,422 L 696,417 L 695,416 L 695,415 L 691,411 Z" fill="black" /><path d="M 699,334 L 696,337 L 696,338 L 695,339 L 695,340 L 694,341 L 694,349 L 695,350 L 695,353 L 696,354 L 696,357 L 697,358 L 697,365 L 696,366 L 696,367 L 692,371 L 691,371 L 689,373 L 688,373 L 684,377 L 684,378 L 683,379 L 683,380 L 682,381 L 682,383 L 681,384 L 681,387 L 682,388 L 682,389 L 683,390 L 683,391 L 684,391 L 685,392 L 691,392 L 692,391 L 693,391 L 698,386 L 698,385 L 701,382 L 704,382 L 705,383 L 708,383 L 709,384 L 716,384 L 717,383 L 718,383 L 723,378 L 723,377 L 724,376 L 724,375 L 725,374 L 725,373 L 726,372 L 726,369 L 727,368 L 727,355 L 726,354 L 726,352 L 725,351 L 725,350 L 724,349 L 724,348 L 718,342 L 717,342 L 716,341 L 715,341 L 714,340 L 713,340 L 712,339 L 711,339 L 710,338 L 709,338 L 708,337 L 707,337 L 706,336 L 704,336 L 703,335 L 702,335 L 701,334 Z" fill="black" /><path d="M 734,291 L 733,292 L 732,292 L 731,293 L 730,293 L 729,294 L 728,294 L 727,295 L 726,295 L 723,298 L 722,298 L 711,309 L 711,310 L 709,312 L 709,313 L 708,314 L 708,315 L 707,316 L 707,322 L 708,323 L 710,323 L 711,322 L 711,321 L 713,319 L 713,318 L 714,317 L 714,316 L 715,315 L 715,314 L 716,313 L 716,312 L 718,310 L 718,309 L 724,303 L 725,303 L 726,302 L 728,302 L 729,301 L 730,301 L 731,302 L 732,302 L 737,307 L 737,308 L 738,309 L 738,311 L 739,312 L 739,315 L 740,316 L 740,329 L 741,330 L 741,339 L 742,340 L 742,347 L 743,348 L 743,357 L 742,358 L 742,364 L 741,365 L 741,368 L 740,369 L 740,372 L 739,373 L 739,375 L 738,376 L 738,377 L 737,378 L 737,379 L 736,380 L 736,381 L 735,382 L 735,383 L 733,385 L 733,386 L 731,388 L 731,389 L 721,399 L 720,399 L 718,401 L 718,402 L 717,403 L 717,407 L 719,407 L 724,402 L 724,401 L 730,395 L 730,394 L 732,392 L 732,391 L 734,389 L 734,388 L 736,386 L 736,385 L 737,384 L 737,383 L 738,382 L 738,381 L 739,380 L 739,379 L 740,378 L 740,376 L 741,375 L 741,373 L 742,372 L 742,368 L 743,367 L 743,362 L 744,361 L 744,356 L 745,355 L 745,352 L 746,351 L 746,348 L 747,347 L 747,344 L 748,343 L 748,341 L 749,340 L 749,337 L 750,336 L 750,332 L 751,331 L 751,327 L 752,326 L 752,321 L 753,320 L 753,305 L 752,304 L 752,301 L 751,300 L 751,298 L 750,297 L 750,296 L 746,292 L 745,292 L 744,291 Z" fill="black" /><path d="M 346,210 L 345,211 L 344,211 L 343,212 L 342,212 L 341,211 L 339,213 L 338,212 L 336,212 L 335,211 L 334,212 L 332,212 L 331,213 L 326,213 L 325,214 L 324,213 L 323,213 L 322,214 L 320,214 L 319,215 L 312,215 L 314,215 L 315,216 L 314,217 L 312,217 L 311,218 L 306,218 L 305,219 L 304,219 L 303,220 L 302,220 L 301,221 L 300,221 L 299,222 L 298,222 L 294,226 L 294,227 L 292,229 L 292,230 L 291,231 L 291,232 L 290,233 L 290,234 L 289,235 L 289,239 L 288,240 L 288,245 L 289,246 L 288,247 L 288,249 L 289,249 L 290,248 L 291,249 L 291,254 L 292,253 L 292,249 L 293,248 L 294,248 L 295,247 L 297,247 L 298,246 L 301,246 L 302,245 L 306,245 L 307,246 L 310,246 L 311,247 L 314,247 L 316,249 L 316,252 L 314,254 L 313,254 L 309,258 L 308,258 L 302,264 L 302,265 L 301,266 L 301,268 L 300,269 L 300,281 L 301,282 L 301,285 L 302,286 L 302,288 L 303,289 L 303,290 L 304,291 L 304,293 L 305,294 L 305,295 L 306,296 L 306,298 L 307,299 L 307,300 L 308,301 L 308,302 L 310,304 L 313,304 L 317,308 L 319,308 L 320,309 L 321,309 L 324,312 L 325,312 L 326,313 L 329,313 L 330,314 L 332,314 L 333,313 L 338,313 L 339,312 L 341,312 L 342,311 L 344,311 L 345,310 L 347,310 L 348,309 L 349,309 L 350,308 L 351,308 L 352,307 L 353,307 L 355,305 L 356,305 L 361,300 L 361,299 L 364,296 L 364,295 L 366,293 L 366,292 L 369,289 L 369,288 L 372,285 L 372,284 L 374,282 L 374,281 L 376,279 L 376,278 L 377,277 L 377,276 L 378,275 L 378,274 L 379,273 L 379,272 L 380,271 L 380,270 L 381,269 L 381,267 L 382,266 L 382,264 L 383,263 L 383,259 L 384,258 L 384,247 L 383,246 L 383,244 L 382,243 L 382,242 L 381,241 L 381,240 L 379,238 L 379,237 L 376,234 L 376,233 L 374,231 L 374,230 L 373,229 L 373,228 L 371,226 L 371,225 L 370,224 L 370,223 L 366,219 L 365,219 L 364,218 L 362,218 L 361,217 L 359,217 L 360,218 L 360,219 L 361,220 L 360,221 L 359,221 L 357,219 L 357,218 L 355,216 L 355,215 L 354,214 L 354,215 L 353,216 L 352,216 L 351,215 L 351,211 L 350,211 L 350,212 L 348,214 L 347,214 L 346,213 Z" fill="black" /><path d="M 462,198 L 461,199 L 453,199 L 452,200 L 450,200 L 449,201 L 436,201 L 433,204 L 431,204 L 430,205 L 429,205 L 428,204 L 427,204 L 427,206 L 424,209 L 424,211 L 423,212 L 422,212 L 421,211 L 421,210 L 420,209 L 420,208 L 419,207 L 419,211 L 418,212 L 417,212 L 416,211 L 417,212 L 417,216 L 416,217 L 414,215 L 414,213 L 414,218 L 413,219 L 413,223 L 414,224 L 414,229 L 415,230 L 415,232 L 416,233 L 416,234 L 418,236 L 418,237 L 420,239 L 420,240 L 423,243 L 423,244 L 424,245 L 424,246 L 426,248 L 426,249 L 427,250 L 427,251 L 428,252 L 428,253 L 429,254 L 429,255 L 430,256 L 430,257 L 431,258 L 431,260 L 433,262 L 433,263 L 434,264 L 435,264 L 439,268 L 440,268 L 441,269 L 442,269 L 443,270 L 443,271 L 444,272 L 444,275 L 445,276 L 445,277 L 446,278 L 446,285 L 447,286 L 447,287 L 448,288 L 448,290 L 449,291 L 449,292 L 453,296 L 454,296 L 455,297 L 457,297 L 458,298 L 462,298 L 463,299 L 464,299 L 464,298 L 463,298 L 462,297 L 463,296 L 465,296 L 466,297 L 469,297 L 470,298 L 493,298 L 494,297 L 502,297 L 503,296 L 506,296 L 507,295 L 509,295 L 510,294 L 513,294 L 514,293 L 516,293 L 517,292 L 519,292 L 510,292 L 509,293 L 489,293 L 488,292 L 488,290 L 494,284 L 495,284 L 496,283 L 497,283 L 498,282 L 501,282 L 502,281 L 506,281 L 507,280 L 513,280 L 514,279 L 518,279 L 519,278 L 523,278 L 524,277 L 528,277 L 529,276 L 541,276 L 542,275 L 550,275 L 551,274 L 554,274 L 557,271 L 557,270 L 558,269 L 558,266 L 557,265 L 557,263 L 555,261 L 555,260 L 553,258 L 552,258 L 551,257 L 550,257 L 549,256 L 548,256 L 547,255 L 546,255 L 545,254 L 544,254 L 543,253 L 542,253 L 541,252 L 539,252 L 538,251 L 537,251 L 536,250 L 534,250 L 533,249 L 531,249 L 530,248 L 528,248 L 527,247 L 523,247 L 522,246 L 520,246 L 519,245 L 516,245 L 515,244 L 512,244 L 511,243 L 508,243 L 507,242 L 504,242 L 503,241 L 498,241 L 497,240 L 494,240 L 491,237 L 491,236 L 490,235 L 490,234 L 491,233 L 491,232 L 496,227 L 497,227 L 498,226 L 499,226 L 500,225 L 501,225 L 502,224 L 503,224 L 504,223 L 505,223 L 506,222 L 508,222 L 509,221 L 510,221 L 511,220 L 520,220 L 521,221 L 523,221 L 524,222 L 525,222 L 526,223 L 527,222 L 528,223 L 532,223 L 533,224 L 535,224 L 534,224 L 533,223 L 534,222 L 536,222 L 537,223 L 539,223 L 540,224 L 544,224 L 545,225 L 548,225 L 549,226 L 551,226 L 552,227 L 554,227 L 555,228 L 556,228 L 557,229 L 558,229 L 559,230 L 560,230 L 561,229 L 562,229 L 563,230 L 564,230 L 563,230 L 561,228 L 562,227 L 563,227 L 564,228 L 566,228 L 563,225 L 562,225 L 560,223 L 559,223 L 557,221 L 556,221 L 555,220 L 554,220 L 552,218 L 551,218 L 549,216 L 548,216 L 547,215 L 546,215 L 545,214 L 544,214 L 542,212 L 541,212 L 540,211 L 539,211 L 538,210 L 537,210 L 535,208 L 534,208 L 533,207 L 533,208 L 534,209 L 533,210 L 532,210 L 531,209 L 530,209 L 529,208 L 528,208 L 523,203 L 522,203 L 523,204 L 523,205 L 522,206 L 521,205 L 518,205 L 517,204 L 516,204 L 515,203 L 514,203 L 515,204 L 514,205 L 513,205 L 512,204 L 511,204 L 510,203 L 509,203 L 508,202 L 503,202 L 502,201 L 475,201 L 474,200 L 470,200 L 469,199 L 465,199 L 464,198 Z" fill="black" /><path d="M 572,105 L 573,106 L 573,107 L 574,108 L 574,109 L 575,110 L 575,111 L 576,112 L 576,113 L 579,116 L 579,117 L 582,120 L 583,120 L 586,123 L 587,123 L 591,127 L 592,127 L 588,123 L 587,123 L 580,116 L 580,115 L 576,111 L 576,110 L 574,108 L 574,107 Z" fill="black" /><path d="M 695,31 Z" fill="black" /><path d="M 394,0 L 393,1 L 393,3 L 392,4 L 392,9 L 391,10 L 390,9 L 390,7 L 384,13 L 383,13 L 382,14 L 380,14 L 379,15 L 372,15 L 378,21 L 377,22 L 376,22 L 375,21 L 374,21 L 374,22 L 373,23 L 372,22 L 370,22 L 369,21 L 368,21 L 367,20 L 366,20 L 364,18 L 366,20 L 366,21 L 369,24 L 368,25 L 367,25 L 366,24 L 365,24 L 364,23 L 363,23 L 362,22 L 361,22 L 360,21 L 359,21 L 361,23 L 361,24 L 362,25 L 363,25 L 365,27 L 364,28 L 363,28 L 362,27 L 360,27 L 359,26 L 356,26 L 356,29 L 360,33 L 359,34 L 353,34 L 352,35 L 348,35 L 347,36 L 346,36 L 344,38 L 343,38 L 341,40 L 341,42 L 340,43 L 337,43 L 336,44 L 332,44 L 332,45 L 334,45 L 335,46 L 334,47 L 333,47 L 332,48 L 333,48 L 334,49 L 333,50 L 325,50 L 324,49 L 321,49 L 320,48 L 319,48 L 318,47 L 317,47 L 319,49 L 321,49 L 322,50 L 321,51 L 319,51 L 318,52 L 310,52 L 308,50 L 307,50 L 306,49 L 307,50 L 307,52 L 306,53 L 302,49 L 302,52 L 303,53 L 303,57 L 304,58 L 304,59 L 305,60 L 305,61 L 307,63 L 307,64 L 308,65 L 308,67 L 307,68 L 304,65 L 303,65 L 302,64 L 302,63 L 301,63 L 302,64 L 302,69 L 303,70 L 303,72 L 304,73 L 304,75 L 305,76 L 305,77 L 306,78 L 306,79 L 305,80 L 302,77 L 302,78 L 303,79 L 303,80 L 304,81 L 304,82 L 306,84 L 306,85 L 307,86 L 307,87 L 312,92 L 313,92 L 314,93 L 313,94 L 301,94 L 300,93 L 304,97 L 306,97 L 307,98 L 309,98 L 310,99 L 309,100 L 308,100 L 307,101 L 303,101 L 304,101 L 305,102 L 306,102 L 307,103 L 306,104 L 302,104 L 301,103 L 299,103 L 298,102 L 296,102 L 295,101 L 295,102 L 296,102 L 301,107 L 302,107 L 303,108 L 304,108 L 305,109 L 306,109 L 307,110 L 306,111 L 299,111 L 297,109 L 297,110 L 298,111 L 299,111 L 300,112 L 300,113 L 299,114 L 296,114 L 297,115 L 301,115 L 302,116 L 301,117 L 299,117 L 300,118 L 301,118 L 303,120 L 304,120 L 305,121 L 306,121 L 307,122 L 308,122 L 309,123 L 306,126 L 305,126 L 304,127 L 308,127 L 309,128 L 310,128 L 311,129 L 311,130 L 308,133 L 308,136 L 309,137 L 309,138 L 310,139 L 310,141 L 311,142 L 311,140 L 312,139 L 313,139 L 313,138 L 312,137 L 312,136 L 313,135 L 314,135 L 315,134 L 317,134 L 318,133 L 319,133 L 327,125 L 327,124 L 329,122 L 329,121 L 331,119 L 331,118 L 335,114 L 336,114 L 337,113 L 338,114 L 340,112 L 341,112 L 342,111 L 345,111 L 346,110 L 348,110 L 349,109 L 358,109 L 359,108 L 364,108 L 365,107 L 368,107 L 369,106 L 371,106 L 372,105 L 373,105 L 374,104 L 375,104 L 376,103 L 377,103 L 378,102 L 379,102 L 380,101 L 381,101 L 382,100 L 383,100 L 384,99 L 385,99 L 386,98 L 387,98 L 388,97 L 389,97 L 390,96 L 391,96 L 392,95 L 393,95 L 395,93 L 396,93 L 397,92 L 398,92 L 399,91 L 400,91 L 402,89 L 403,89 L 404,88 L 405,88 L 407,86 L 408,86 L 409,85 L 410,85 L 412,83 L 414,83 L 415,82 L 416,82 L 417,81 L 420,81 L 421,80 L 424,80 L 425,79 L 435,79 L 436,78 L 443,78 L 444,77 L 445,77 L 446,78 L 447,78 L 448,77 L 449,77 L 450,76 L 452,76 L 453,75 L 454,76 L 454,77 L 453,78 L 452,78 L 453,78 L 454,77 L 455,77 L 461,71 L 462,71 L 463,70 L 466,70 L 467,69 L 469,69 L 470,68 L 471,68 L 472,67 L 473,67 L 474,66 L 475,66 L 476,65 L 478,65 L 479,64 L 481,64 L 482,63 L 493,63 L 494,64 L 498,64 L 498,63 L 499,62 L 502,65 L 510,65 L 511,64 L 516,64 L 517,63 L 521,63 L 522,62 L 538,62 L 539,63 L 543,63 L 544,64 L 547,64 L 548,65 L 551,65 L 551,64 L 552,63 L 553,63 L 554,64 L 554,66 L 555,67 L 555,68 L 555,67 L 556,66 L 556,65 L 557,64 L 558,65 L 558,69 L 560,67 L 561,68 L 561,69 L 561,68 L 562,67 L 563,67 L 564,68 L 564,70 L 565,70 L 565,66 L 566,65 L 568,67 L 568,77 L 567,78 L 567,80 L 565,82 L 565,83 L 563,85 L 563,86 L 562,87 L 562,89 L 561,90 L 561,92 L 564,89 L 565,90 L 565,97 L 566,98 L 566,100 L 567,101 L 567,104 L 568,105 L 568,106 L 569,107 L 569,108 L 570,109 L 570,110 L 572,112 L 572,111 L 571,110 L 571,109 L 570,108 L 570,106 L 569,105 L 569,98 L 570,97 L 571,97 L 572,98 L 572,100 L 573,101 L 573,102 L 575,104 L 575,105 L 576,106 L 576,107 L 579,110 L 579,111 L 585,117 L 586,117 L 589,120 L 590,120 L 600,130 L 600,131 L 601,132 L 601,133 L 602,134 L 602,136 L 603,137 L 603,138 L 602,139 L 599,136 L 599,137 L 600,138 L 600,139 L 601,140 L 601,141 L 603,143 L 603,144 L 604,145 L 604,147 L 603,148 L 602,147 L 602,146 L 601,145 L 601,144 L 600,143 L 600,146 L 601,147 L 601,149 L 602,150 L 602,152 L 601,153 L 600,152 L 600,151 L 599,150 L 599,149 L 597,147 L 597,146 L 596,145 L 595,145 L 594,146 L 594,147 L 593,148 L 593,149 L 592,150 L 592,156 L 592,155 L 593,154 L 594,155 L 594,157 L 595,158 L 595,159 L 594,160 L 594,164 L 595,165 L 595,167 L 596,168 L 596,169 L 597,170 L 597,171 L 598,172 L 598,173 L 599,174 L 599,175 L 603,179 L 603,178 L 602,177 L 602,174 L 603,173 L 607,177 L 607,178 L 612,183 L 613,183 L 622,192 L 622,193 L 624,195 L 624,196 L 625,197 L 625,196 L 626,195 L 627,196 L 627,197 L 628,198 L 628,199 L 629,200 L 629,201 L 630,202 L 630,204 L 631,205 L 631,207 L 632,208 L 632,210 L 633,210 L 633,208 L 634,207 L 635,207 L 636,208 L 636,209 L 635,210 L 636,211 L 636,227 L 637,228 L 637,233 L 638,234 L 638,240 L 639,239 L 639,237 L 640,236 L 640,235 L 641,234 L 642,235 L 642,238 L 641,239 L 641,241 L 640,242 L 640,245 L 639,246 L 639,248 L 638,249 L 639,249 L 640,250 L 640,254 L 641,255 L 640,256 L 640,261 L 642,259 L 643,260 L 643,263 L 642,264 L 642,267 L 641,268 L 641,271 L 642,270 L 643,271 L 643,272 L 642,273 L 642,277 L 641,278 L 641,286 L 642,285 L 642,284 L 643,283 L 644,284 L 644,295 L 643,296 L 643,299 L 644,300 L 644,303 L 645,302 L 646,303 L 646,306 L 645,307 L 645,315 L 646,316 L 646,315 L 647,314 L 647,313 L 648,312 L 648,311 L 649,310 L 649,309 L 652,306 L 653,307 L 653,309 L 654,308 L 655,309 L 656,308 L 657,308 L 658,309 L 658,310 L 659,310 L 660,311 L 660,312 L 659,313 L 659,314 L 658,315 L 658,316 L 657,317 L 657,318 L 656,319 L 656,320 L 655,321 L 655,323 L 654,324 L 653,324 L 652,323 L 652,322 L 651,321 L 651,316 L 651,317 L 650,318 L 650,320 L 649,321 L 649,324 L 648,325 L 646,323 L 646,322 L 647,321 L 647,318 L 647,319 L 646,320 L 646,322 L 645,323 L 645,326 L 644,327 L 645,326 L 646,327 L 646,328 L 645,329 L 645,330 L 644,331 L 644,332 L 643,333 L 643,335 L 642,336 L 643,337 L 643,339 L 644,340 L 644,341 L 645,342 L 645,344 L 644,345 L 643,344 L 643,343 L 642,342 L 641,342 L 641,344 L 640,345 L 640,349 L 641,350 L 641,352 L 642,353 L 642,356 L 642,354 L 643,353 L 644,354 L 644,363 L 643,364 L 642,363 L 642,362 L 641,361 L 641,359 L 640,358 L 640,356 L 639,355 L 639,353 L 637,351 L 637,350 L 636,349 L 636,348 L 636,351 L 637,352 L 637,353 L 635,355 L 635,356 L 634,357 L 634,359 L 633,360 L 633,366 L 633,364 L 635,362 L 636,363 L 636,364 L 635,365 L 635,367 L 634,368 L 634,370 L 633,371 L 633,374 L 632,375 L 631,374 L 631,373 L 630,373 L 631,374 L 631,377 L 630,378 L 630,386 L 629,387 L 628,386 L 628,384 L 624,380 L 623,381 L 623,386 L 622,387 L 622,390 L 621,391 L 621,392 L 620,393 L 620,394 L 619,395 L 619,397 L 618,398 L 618,399 L 616,401 L 617,402 L 617,404 L 616,405 L 615,404 L 615,403 L 614,402 L 613,402 L 612,403 L 612,404 L 611,405 L 611,406 L 610,407 L 610,408 L 611,409 L 611,411 L 612,412 L 612,414 L 613,415 L 613,418 L 614,419 L 614,422 L 613,423 L 612,422 L 612,420 L 611,419 L 611,417 L 610,416 L 610,414 L 609,413 L 609,412 L 608,411 L 608,412 L 609,413 L 609,414 L 610,415 L 610,417 L 609,418 L 608,417 L 608,416 L 607,415 L 606,415 L 606,418 L 604,420 L 603,420 L 602,419 L 602,424 L 601,425 L 601,429 L 600,430 L 600,431 L 599,432 L 598,431 L 598,438 L 599,439 L 599,441 L 600,442 L 600,443 L 599,444 L 591,436 L 590,436 L 592,438 L 592,439 L 591,440 L 591,442 L 590,443 L 588,441 L 587,441 L 582,436 L 582,437 L 584,439 L 583,440 L 582,440 L 581,439 L 579,439 L 578,438 L 575,438 L 574,437 L 573,437 L 573,438 L 574,439 L 574,440 L 573,441 L 572,441 L 570,439 L 570,441 L 573,444 L 572,445 L 571,445 L 569,443 L 568,443 L 566,441 L 565,441 L 562,438 L 562,440 L 563,441 L 563,442 L 564,443 L 564,444 L 566,446 L 565,447 L 564,447 L 563,446 L 561,446 L 559,444 L 558,444 L 557,443 L 558,444 L 558,447 L 557,448 L 558,449 L 558,450 L 557,451 L 556,450 L 556,452 L 555,453 L 553,451 L 553,449 L 552,448 L 552,447 L 552,448 L 551,449 L 550,448 L 550,447 L 548,445 L 547,445 L 546,444 L 545,444 L 545,446 L 544,447 L 544,448 L 543,449 L 542,448 L 542,446 L 541,447 L 542,448 L 542,449 L 541,450 L 540,450 L 539,449 L 538,449 L 538,450 L 537,451 L 536,451 L 535,450 L 535,449 L 534,450 L 534,452 L 535,453 L 535,455 L 536,456 L 536,457 L 537,458 L 537,460 L 536,461 L 534,459 L 533,459 L 531,457 L 531,460 L 532,461 L 531,462 L 530,462 L 529,461 L 528,461 L 525,458 L 525,457 L 524,456 L 524,455 L 523,454 L 523,453 L 522,452 L 522,450 L 522,457 L 523,458 L 523,460 L 522,461 L 521,461 L 521,462 L 520,463 L 518,463 L 517,462 L 514,462 L 517,465 L 517,468 L 518,469 L 518,483 L 519,484 L 519,488 L 521,490 L 521,491 L 520,492 L 518,490 L 517,490 L 516,491 L 514,491 L 513,490 L 512,490 L 513,491 L 514,491 L 515,492 L 516,492 L 517,493 L 518,493 L 520,495 L 519,496 L 518,496 L 517,495 L 514,495 L 513,496 L 511,496 L 511,498 L 510,499 L 511,500 L 510,501 L 508,501 L 507,500 L 505,500 L 504,499 L 502,499 L 501,498 L 500,498 L 495,493 L 495,492 L 494,491 L 494,490 L 493,490 L 492,489 L 490,489 L 489,488 L 489,487 L 488,487 L 487,486 L 486,486 L 485,487 L 484,487 L 483,486 L 482,486 L 482,487 L 481,488 L 478,488 L 477,489 L 475,489 L 474,490 L 473,490 L 472,491 L 471,491 L 469,493 L 468,493 L 462,499 L 462,511 L 461,512 L 460,511 L 460,512 L 461,513 L 459,515 L 455,515 L 454,516 L 447,516 L 445,514 L 445,516 L 443,518 L 440,518 L 439,517 L 435,517 L 434,516 L 431,516 L 432,517 L 431,518 L 425,518 L 424,517 L 423,517 L 422,516 L 422,517 L 423,518 L 423,519 L 422,520 L 421,520 L 420,519 L 419,519 L 418,518 L 417,518 L 416,517 L 415,517 L 414,516 L 413,516 L 412,515 L 412,514 L 411,515 L 412,516 L 412,517 L 411,518 L 407,518 L 406,517 L 406,516 L 405,515 L 405,514 L 404,513 L 404,510 L 403,510 L 403,511 L 402,512 L 402,514 L 401,515 L 401,517 L 400,518 L 399,518 L 391,510 L 390,511 L 388,509 L 388,508 L 387,507 L 387,506 L 386,505 L 386,504 L 384,502 L 384,501 L 381,498 L 378,498 L 377,497 L 377,496 L 376,495 L 376,492 L 374,490 L 375,489 L 375,487 L 377,485 L 381,485 L 382,484 L 384,484 L 385,483 L 385,482 L 386,481 L 387,481 L 389,479 L 390,479 L 391,480 L 395,480 L 396,481 L 408,481 L 409,482 L 410,482 L 411,481 L 413,481 L 413,480 L 414,479 L 414,478 L 415,477 L 415,474 L 416,473 L 416,469 L 417,468 L 417,465 L 418,464 L 418,455 L 416,453 L 415,453 L 414,452 L 413,452 L 412,451 L 409,451 L 408,450 L 405,450 L 404,449 L 400,449 L 399,448 L 367,448 L 366,449 L 362,449 L 361,450 L 357,450 L 356,451 L 354,451 L 353,452 L 352,452 L 351,453 L 347,453 L 346,454 L 343,454 L 341,456 L 341,457 L 340,458 L 341,459 L 341,462 L 340,463 L 340,464 L 338,466 L 338,467 L 337,468 L 337,471 L 338,471 L 339,472 L 339,473 L 337,475 L 337,477 L 336,478 L 336,479 L 335,480 L 335,490 L 336,491 L 337,491 L 338,492 L 339,492 L 340,493 L 344,493 L 345,494 L 351,494 L 352,495 L 357,495 L 358,494 L 359,494 L 361,492 L 362,492 L 366,488 L 367,488 L 368,489 L 372,489 L 373,490 L 373,492 L 372,493 L 372,494 L 371,495 L 371,496 L 369,498 L 369,499 L 368,500 L 368,502 L 369,503 L 369,504 L 366,507 L 365,507 L 363,509 L 363,510 L 360,513 L 360,515 L 359,516 L 359,517 L 358,518 L 354,518 L 354,519 L 353,520 L 352,520 L 351,519 L 351,518 L 350,517 L 350,516 L 348,518 L 348,521 L 347,522 L 344,522 L 344,524 L 343,525 L 342,525 L 338,521 L 338,520 L 337,519 L 337,517 L 336,516 L 336,514 L 335,513 L 335,512 L 333,510 L 332,510 L 331,509 L 331,508 L 332,507 L 332,506 L 331,505 L 331,504 L 330,503 L 330,502 L 329,501 L 329,500 L 328,499 L 328,498 L 327,497 L 327,492 L 326,491 L 325,491 L 322,488 L 323,487 L 324,487 L 324,486 L 323,485 L 323,483 L 322,482 L 322,477 L 321,476 L 321,471 L 322,470 L 322,468 L 323,467 L 323,465 L 324,464 L 324,462 L 325,461 L 325,460 L 326,459 L 326,458 L 327,457 L 327,456 L 329,454 L 329,453 L 330,452 L 330,451 L 333,448 L 333,447 L 341,439 L 342,439 L 344,437 L 345,437 L 347,435 L 348,435 L 349,434 L 350,434 L 351,433 L 352,433 L 353,432 L 355,432 L 356,431 L 358,431 L 359,430 L 373,430 L 374,431 L 375,431 L 376,430 L 383,430 L 384,429 L 386,429 L 387,428 L 390,428 L 391,427 L 396,427 L 397,426 L 409,426 L 410,427 L 412,427 L 413,428 L 416,428 L 417,429 L 418,429 L 419,430 L 422,430 L 423,431 L 426,431 L 427,432 L 430,432 L 431,433 L 435,433 L 436,434 L 441,434 L 442,435 L 447,435 L 448,436 L 451,436 L 452,437 L 454,437 L 455,438 L 456,438 L 456,437 L 457,436 L 458,437 L 459,437 L 462,440 L 463,440 L 464,441 L 465,441 L 467,443 L 468,443 L 470,445 L 471,445 L 477,451 L 477,452 L 480,455 L 482,455 L 483,454 L 483,453 L 484,452 L 485,452 L 484,451 L 484,450 L 485,449 L 486,450 L 486,449 L 485,448 L 485,446 L 484,445 L 484,442 L 483,441 L 483,439 L 482,438 L 482,437 L 481,436 L 481,434 L 482,433 L 483,434 L 483,435 L 485,437 L 485,435 L 484,434 L 484,431 L 483,430 L 483,427 L 482,426 L 482,425 L 483,424 L 484,425 L 486,425 L 486,424 L 483,421 L 483,420 L 479,416 L 478,416 L 473,411 L 473,410 L 472,409 L 472,408 L 465,401 L 463,401 L 464,402 L 464,403 L 463,404 L 459,400 L 459,401 L 460,402 L 460,403 L 459,404 L 458,403 L 457,403 L 456,402 L 454,402 L 453,401 L 452,401 L 450,399 L 449,399 L 444,394 L 443,394 L 441,392 L 440,392 L 439,391 L 438,391 L 437,390 L 436,390 L 432,386 L 431,386 L 430,385 L 433,388 L 433,389 L 439,395 L 439,396 L 438,397 L 428,387 L 427,387 L 422,382 L 421,383 L 419,381 L 417,381 L 416,380 L 416,381 L 415,382 L 412,379 L 412,378 L 407,373 L 408,372 L 416,372 L 417,371 L 426,371 L 427,370 L 430,370 L 432,368 L 433,368 L 435,366 L 435,365 L 437,363 L 437,362 L 439,360 L 439,358 L 440,357 L 440,354 L 441,353 L 441,349 L 441,350 L 434,357 L 433,357 L 432,358 L 422,358 L 420,356 L 419,356 L 418,355 L 417,355 L 415,353 L 414,353 L 413,352 L 412,352 L 411,351 L 410,351 L 409,350 L 408,350 L 407,349 L 406,349 L 405,348 L 402,348 L 401,347 L 394,347 L 393,346 L 392,346 L 391,347 L 380,347 L 379,348 L 376,348 L 375,349 L 372,349 L 371,348 L 363,348 L 362,347 L 356,347 L 355,346 L 346,346 L 345,347 L 344,347 L 343,348 L 343,349 L 342,350 L 342,351 L 341,352 L 341,363 L 342,364 L 342,365 L 343,366 L 343,367 L 347,371 L 348,371 L 349,372 L 351,372 L 352,373 L 353,373 L 354,374 L 355,374 L 358,377 L 357,378 L 356,378 L 355,379 L 354,379 L 352,381 L 351,381 L 351,383 L 344,390 L 344,391 L 343,392 L 344,393 L 341,396 L 340,396 L 339,397 L 338,397 L 336,399 L 336,400 L 334,402 L 334,403 L 333,404 L 333,405 L 334,406 L 331,409 L 329,409 L 329,410 L 328,411 L 327,411 L 326,412 L 324,412 L 324,414 L 323,415 L 322,415 L 316,421 L 316,422 L 314,424 L 314,427 L 312,429 L 312,432 L 311,433 L 311,434 L 310,435 L 310,436 L 311,437 L 310,438 L 310,441 L 309,442 L 309,444 L 310,445 L 310,446 L 309,447 L 309,458 L 310,459 L 310,457 L 312,455 L 313,456 L 313,462 L 314,463 L 314,468 L 315,469 L 315,471 L 316,472 L 316,473 L 317,474 L 316,475 L 316,478 L 317,479 L 317,480 L 319,482 L 319,483 L 318,484 L 318,487 L 319,488 L 319,489 L 320,490 L 320,492 L 321,493 L 321,495 L 322,496 L 322,497 L 323,498 L 323,500 L 324,501 L 324,502 L 326,504 L 326,506 L 327,506 L 328,507 L 328,513 L 329,514 L 329,516 L 330,516 L 331,517 L 331,523 L 332,524 L 332,528 L 333,529 L 333,538 L 334,538 L 335,539 L 335,541 L 337,543 L 337,547 L 339,547 L 340,548 L 340,552 L 341,551 L 342,551 L 343,552 L 343,553 L 345,555 L 345,556 L 346,557 L 347,556 L 349,558 L 349,560 L 351,562 L 352,562 L 353,563 L 355,563 L 356,564 L 357,564 L 358,565 L 358,567 L 361,570 L 363,570 L 364,571 L 367,571 L 368,572 L 372,572 L 373,573 L 372,574 L 373,574 L 374,575 L 375,575 L 378,578 L 382,578 L 383,579 L 383,580 L 384,580 L 385,581 L 386,581 L 387,582 L 388,582 L 389,583 L 390,583 L 391,584 L 394,584 L 395,585 L 400,585 L 404,589 L 405,589 L 406,590 L 407,590 L 408,591 L 409,591 L 410,592 L 411,592 L 412,593 L 414,593 L 415,594 L 417,594 L 418,595 L 419,594 L 421,594 L 422,595 L 425,595 L 426,596 L 428,596 L 429,597 L 431,597 L 432,598 L 433,598 L 434,599 L 436,599 L 437,600 L 438,600 L 439,601 L 440,601 L 441,602 L 442,602 L 443,603 L 444,603 L 445,604 L 446,604 L 447,605 L 448,605 L 449,606 L 450,606 L 451,607 L 452,607 L 453,608 L 454,608 L 455,609 L 457,609 L 458,610 L 459,610 L 460,611 L 462,611 L 463,612 L 465,612 L 466,613 L 469,613 L 470,614 L 474,614 L 475,615 L 492,615 L 493,614 L 497,614 L 498,613 L 500,613 L 501,612 L 502,612 L 503,611 L 504,611 L 505,610 L 506,610 L 507,609 L 508,609 L 511,606 L 512,606 L 515,603 L 516,603 L 518,601 L 519,601 L 521,599 L 522,599 L 523,598 L 524,598 L 525,597 L 526,597 L 527,596 L 529,596 L 530,595 L 538,595 L 539,594 L 540,594 L 542,592 L 543,592 L 544,591 L 547,591 L 548,590 L 549,590 L 550,589 L 551,589 L 552,588 L 554,588 L 555,587 L 556,587 L 557,586 L 558,586 L 559,585 L 560,585 L 561,584 L 563,584 L 564,583 L 565,583 L 566,582 L 568,582 L 569,581 L 571,581 L 572,580 L 574,580 L 575,579 L 578,579 L 579,578 L 581,578 L 582,577 L 585,577 L 586,576 L 587,576 L 588,575 L 590,575 L 591,574 L 592,574 L 595,571 L 596,571 L 602,565 L 601,565 L 600,566 L 599,566 L 598,567 L 597,567 L 596,568 L 595,568 L 594,567 L 598,563 L 599,563 L 603,559 L 604,559 L 609,554 L 608,555 L 607,555 L 606,554 L 608,552 L 609,552 L 613,548 L 613,546 L 630,529 L 628,531 L 627,531 L 626,530 L 633,523 L 633,522 L 637,518 L 637,517 L 640,514 L 639,515 L 638,515 L 637,514 L 638,513 L 638,512 L 641,509 L 641,508 L 644,505 L 644,504 L 646,502 L 646,501 L 648,499 L 648,498 L 649,497 L 649,496 L 650,495 L 650,494 L 651,493 L 651,492 L 652,491 L 652,490 L 653,489 L 653,487 L 654,486 L 654,485 L 655,484 L 655,482 L 656,481 L 656,479 L 657,478 L 657,476 L 658,475 L 658,472 L 659,471 L 659,469 L 660,468 L 660,466 L 661,465 L 661,462 L 662,461 L 662,459 L 663,458 L 663,456 L 664,455 L 664,453 L 665,452 L 665,449 L 666,448 L 666,447 L 667,446 L 667,445 L 671,441 L 672,441 L 673,440 L 675,440 L 676,439 L 678,439 L 679,438 L 682,438 L 683,437 L 686,437 L 687,436 L 690,436 L 691,435 L 693,435 L 694,434 L 696,434 L 697,433 L 698,433 L 699,432 L 701,432 L 697,432 L 696,433 L 690,433 L 689,432 L 682,432 L 681,431 L 680,431 L 679,430 L 677,430 L 673,426 L 673,424 L 672,423 L 672,421 L 671,420 L 671,418 L 670,417 L 670,414 L 670,423 L 669,424 L 668,423 L 668,422 L 667,421 L 667,420 L 666,419 L 666,417 L 665,416 L 665,413 L 664,412 L 664,404 L 663,403 L 663,399 L 664,398 L 664,395 L 663,394 L 663,384 L 662,384 L 661,383 L 661,382 L 662,381 L 661,380 L 661,379 L 661,380 L 659,382 L 658,382 L 658,383 L 657,384 L 656,383 L 656,381 L 657,380 L 657,378 L 658,377 L 658,376 L 659,375 L 659,374 L 660,373 L 660,371 L 661,370 L 661,368 L 663,366 L 662,366 L 661,365 L 661,364 L 662,363 L 662,358 L 660,358 L 659,359 L 658,359 L 657,358 L 657,357 L 658,356 L 658,355 L 657,356 L 657,358 L 656,359 L 656,361 L 655,362 L 655,363 L 654,364 L 653,363 L 653,361 L 654,360 L 654,357 L 655,356 L 655,354 L 656,353 L 656,344 L 657,343 L 657,340 L 658,339 L 658,337 L 657,336 L 657,333 L 658,332 L 658,331 L 659,330 L 660,331 L 660,333 L 661,332 L 661,331 L 662,330 L 662,329 L 663,328 L 663,326 L 664,325 L 664,323 L 665,322 L 665,319 L 666,318 L 666,316 L 667,315 L 667,313 L 668,312 L 668,310 L 670,308 L 670,307 L 679,298 L 679,297 L 681,295 L 682,296 L 682,297 L 681,298 L 681,300 L 680,301 L 680,302 L 681,301 L 681,300 L 683,298 L 684,299 L 684,300 L 683,301 L 683,305 L 686,302 L 687,302 L 689,300 L 690,300 L 691,299 L 692,299 L 694,297 L 696,297 L 697,296 L 700,296 L 701,295 L 702,295 L 703,296 L 702,297 L 703,297 L 704,296 L 707,296 L 709,294 L 710,294 L 712,292 L 713,292 L 715,290 L 716,290 L 719,287 L 720,287 L 723,284 L 724,284 L 725,283 L 726,283 L 728,281 L 729,281 L 730,280 L 732,280 L 733,279 L 734,279 L 735,278 L 741,278 L 742,279 L 747,279 L 748,280 L 749,280 L 751,282 L 752,282 L 751,281 L 751,274 L 752,273 L 754,275 L 754,274 L 753,273 L 753,270 L 754,269 L 754,254 L 755,253 L 756,254 L 756,253 L 755,252 L 755,245 L 756,244 L 756,240 L 757,239 L 756,238 L 756,231 L 757,230 L 758,231 L 758,232 L 758,228 L 757,227 L 757,222 L 758,221 L 758,216 L 759,215 L 759,213 L 758,212 L 758,205 L 759,204 L 760,205 L 759,204 L 759,203 L 760,202 L 759,201 L 759,197 L 758,196 L 758,190 L 760,188 L 761,189 L 761,186 L 760,185 L 761,184 L 761,176 L 762,175 L 763,175 L 762,174 L 762,173 L 761,172 L 761,167 L 760,166 L 760,163 L 761,162 L 763,162 L 764,163 L 762,161 L 762,159 L 761,158 L 761,150 L 760,149 L 760,146 L 759,145 L 760,144 L 761,144 L 762,145 L 762,144 L 760,142 L 760,139 L 759,138 L 759,135 L 758,134 L 758,132 L 759,131 L 760,131 L 758,129 L 759,128 L 758,127 L 758,126 L 757,125 L 757,124 L 756,123 L 756,122 L 755,121 L 756,120 L 755,120 L 754,119 L 754,118 L 751,115 L 751,114 L 752,113 L 755,116 L 755,115 L 752,112 L 752,111 L 751,110 L 751,109 L 750,108 L 750,107 L 748,105 L 748,104 L 747,103 L 747,102 L 745,100 L 745,99 L 746,98 L 747,99 L 746,98 L 745,98 L 743,96 L 743,95 L 741,93 L 742,92 L 744,92 L 745,93 L 746,93 L 743,90 L 742,90 L 740,88 L 739,88 L 738,87 L 739,86 L 742,86 L 741,85 L 740,85 L 739,84 L 737,84 L 736,83 L 737,82 L 738,82 L 739,81 L 740,81 L 741,80 L 735,80 L 734,79 L 735,78 L 735,74 L 735,75 L 734,76 L 734,77 L 733,78 L 732,77 L 732,76 L 731,75 L 731,66 L 731,71 L 730,72 L 729,71 L 729,70 L 728,69 L 728,68 L 727,67 L 727,65 L 726,64 L 726,62 L 726,66 L 725,67 L 724,67 L 723,66 L 723,64 L 722,63 L 722,60 L 721,59 L 721,57 L 720,56 L 720,55 L 719,54 L 719,52 L 718,51 L 719,52 L 719,53 L 718,54 L 718,57 L 719,58 L 719,60 L 718,61 L 717,60 L 717,59 L 716,58 L 716,57 L 715,56 L 715,55 L 714,54 L 714,53 L 713,52 L 713,51 L 712,50 L 712,49 L 711,48 L 711,46 L 710,45 L 710,47 L 711,48 L 711,52 L 710,53 L 709,52 L 709,51 L 708,50 L 708,49 L 707,48 L 707,44 L 706,43 L 706,40 L 705,39 L 705,37 L 705,47 L 704,48 L 702,46 L 702,44 L 701,43 L 701,42 L 699,42 L 698,41 L 698,40 L 697,39 L 697,35 L 696,34 L 696,33 L 696,37 L 695,38 L 694,37 L 694,35 L 693,34 L 693,35 L 692,36 L 691,35 L 691,33 L 690,32 L 690,29 L 689,28 L 689,26 L 688,25 L 688,24 L 688,31 L 687,32 L 686,31 L 686,30 L 685,29 L 685,27 L 685,28 L 684,29 L 681,26 L 681,25 L 680,24 L 680,23 L 677,20 L 677,19 L 676,18 L 676,20 L 677,21 L 677,23 L 676,24 L 673,21 L 673,20 L 672,19 L 672,18 L 671,17 L 671,16 L 670,15 L 670,14 L 669,13 L 669,14 L 670,15 L 670,16 L 669,17 L 667,15 L 667,14 L 665,12 L 665,11 L 665,12 L 666,13 L 666,14 L 665,15 L 663,13 L 663,12 L 662,11 L 662,10 L 659,7 L 658,7 L 660,9 L 660,10 L 661,11 L 661,13 L 660,14 L 658,12 L 658,11 L 657,11 L 654,8 L 654,7 L 652,5 L 652,4 L 651,3 L 651,2 L 650,1 L 651,2 L 651,5 L 652,6 L 652,8 L 651,9 L 649,7 L 649,6 L 649,8 L 648,9 L 647,9 L 639,1 L 638,1 L 637,0 L 617,0 L 617,1 L 616,2 L 615,2 L 613,0 L 418,0 L 417,1 L 416,1 L 416,2 L 415,3 L 412,3 L 411,2 L 410,2 L 408,4 L 406,4 L 405,5 L 401,5 L 400,6 L 399,6 L 398,5 L 398,4 L 396,4 L 394,2 Z" fill="black" /></svg>